<svg xmlns="http://www.w3.org/2000/svg" viewBox="0 0 66.19 66.19"><defs><style>.cls-1{fill:#fff;}.cls-1,.cls-2{fill-rule:evenodd;}.cls-2{fill:#f7941d;}</style></defs><title>bitcoin_1</title><g id="Layer_2" data-name="Layer 2"><g id="Layer_1-2" data-name="Layer 1"><path class="cls-1" d="M33.11,59.67A26.58,26.58,0,1,0,6.52,33.11,26.61,26.61,0,0,0,33.11,59.67Z"/><path class="cls-2" d="M46.74,2.95A33.09,33.09,0,1,1,2.95,19.45,33.09,33.09,0,0,1,46.74,2.95ZM32.85,27.34c1.5-3.31,3.1-6.75,3.54-7.53.34-.62,1.22-.26,2.07.13a8.18,8.18,0,0,1,3.1,3.13,5.6,5.6,0,0,1-.21,4.76,6.81,6.81,0,0,1-4,3.85c-1.63.49-4.29-.41-5.85-1.32Zm-2,4.4a13.71,13.71,0,0,1,4.6,2.9c1.78,1.81,2.25,4.58.8,7.79-2.28,5-5.56,5.17-8.41,3.91-2.1-1-2.28-2.92-.57-6.7ZM34.5,16.66l2.33-5.17,2.3,1-2.33,5.1c1,.41,2.07.88,3.23,1.4l2.28-5.07,2.28,1-2.3,5.12a12.9,12.9,0,0,1,4.58,3.31,6.1,6.1,0,0,1,.62,6.8c-1.19,2.64-3.93,4.47-8.79,4l0,.08c4.35,3.52,5.87,7.09,4,11.3-1,2.15-3.52,4.58-5.85,4.66a18.81,18.81,0,0,1-7.37-1.63l-2.25,5-2.28-1,2.2-4.91-.36-.16c-.34-.16-1.35-.7-2.46-1.24a1.93,1.93,0,0,0-.31-.18l-2.28,5L19.4,50l2.33-5.12-.54-.26c-2-.91-3.34-1.47-4.22-1.86s-1.32-.49-1.58-.62c-.41-.18-.39-.31-.26-.65l.41-.88c.1-.23.18-.28.54-.13l1.4.65c1.19.52,1.6.13,2.3-1,.54-.85,3-6.1,4.47-9.36l2.12-4.71c.67-1.47,2.79-6.36,3.05-7,.93-2.35.31-2.72-1-3.34l-1.29-.57c-.28-.13-.26-.16-.1-.49l.41-.91c.1-.23.21-.34.47-.21.52.23,2.38,1.22,6.18,2.92l.39.18Z"/></g></g></svg>