<svg xmlns="http://www.w3.org/2000/svg" viewBox="0 0 79.13 60.03"><defs><style>.cls-1,.cls-3{fill:#f7941d;}.cls-2{fill:#fff;}.cls-2,.cls-3{stroke:#fff;stroke-miterlimit:10;stroke-width:2.46px;fill-rule:evenodd;}</style></defs><title>bitcoin_cash_1</title><g id="Layer_2" data-name="Layer 2"><g id="Layer_1-2" data-name="Layer 1"><rect class="cls-1" y="1.29" width="79.13" height="57.24" rx="4.15" ry="4.15"/><path class="cls-2" d="M56.91,45.93a23.11,23.11,0,1,0-32.67.86,23.13,23.13,0,0,0,32.67-.86Z"/><path class="cls-3" d="M29.31,3.36A28.78,28.78,0,1,1,13.49,40.86,28.77,28.77,0,0,1,29.31,3.36Zm7.06,23.36c-1.19-2.93-2.4-6-2.62-6.74-.19-.58.56-.92,1.32-1.23a7.11,7.11,0,0,1,3.83-.08,4.87,4.87,0,0,1,2.88,3,5.93,5.93,0,0,1,0,4.85C41.13,27.83,39,29,37.46,29.4ZM38,30.62a11.93,11.93,0,0,1,4.58-1.17c2.21,0,4.23,1.32,5.39,4.16,1.78,4.42-.07,6.6-2.57,7.64-1.86.75-3.21-.32-4.56-3.65ZM30.63,19.29l-1.87-4.57,2-.83,1.82,4.52c.83-.36,1.79-.78,2.82-1.2l-1.83-4.47,2-.82,1.85,4.52a11.21,11.21,0,0,1,4.83-.9A5.3,5.3,0,0,1,47,19.22c1,2.33.47,5.16-2.77,7.92l0,.06c4.82-.63,8,.54,9.5,4.27.77,1.91.78,5-.56,6.47a16.36,16.36,0,0,1-5.44,3.67L49.49,46l-2,.82-1.78-4.33-.31.14c-.3.12-1.25.43-2.25.81a1.68,1.68,0,0,0-.3.09L44.64,48l-2,.82-1.84-4.53-.49.19c-1.76.71-2.93,1.22-3.7,1.54s-1.1.54-1.34.62-.43.06-.56-.22l-.31-.79c-.08-.2-.07-.28.24-.42l1.24-.49c1-.44,1-.93.76-2-.21-.85-2.05-5.55-3.22-8.43l-1.7-4.16c-.53-1.31-2.34-5.57-2.61-6.14-.93-2-1.53-1.82-2.69-1.38L25.28,23c-.25.1-.25.07-.37-.23l-.32-.8c-.08-.2-.09-.33.15-.42.46-.19,2.19-.77,5.54-2.15l.35-.14Z"/></g></g></svg>