<svg xmlns="http://www.w3.org/2000/svg" viewBox="0 0 65.75 65.75"><defs><style>.cls-1{fill:#1b75bc;}.cls-2{fill:#fff;stroke:#fff;stroke-miterlimit:10;stroke-width:0.24px;fill-rule:evenodd;}</style></defs><title>cardano_1</title><g id="Layer_2" data-name="Layer 2"><g id="Layer_1-2" data-name="Layer 1"><circle class="cls-1" cx="32.88" cy="32.88" r="32.88"/><path class="cls-2" d="M33.62,41.26c.7,4.62,7.51,3.61,6.91-.89-.63-4.67-7.59-3.52-6.91.89Z"/><path class="cls-2" d="M27.49,34a3.48,3.48,0,0,0-2.54-4.17c-4.49-1.13-6.14,5.61-1.72,6.76A3.45,3.45,0,0,0,27.49,34Z"/><path class="cls-2" d="M38.06,34a3.46,3.46,0,0,0,4,2.74c4.55-.81,3.25-7.77-1.3-6.84A3.5,3.5,0,0,0,38.06,34Z"/><path class="cls-2" d="M36.59,22.33a3.48,3.48,0,1,0,1.18,6.86c4.48-.8,3.41-7.64-1.18-6.86Z"/><path class="cls-2" d="M24.94,41.16c.45,4.47,7.39,3.85,6.92-.81a3.51,3.51,0,0,0-3.92-3,3.46,3.46,0,0,0-3,3.85Z"/><path class="cls-2" d="M28,22.27a3.47,3.47,0,1,0,3.93,2.81A3.47,3.47,0,0,0,28,22.27Z"/><path class="cls-2" d="M31.22,47.11A1.61,1.61,0,1,0,32.4,45.2a1.61,1.61,0,0,0-1.18,1.91Z"/><path class="cls-2" d="M22.64,40.46a1.61,1.61,0,1,0-2,1.08,1.61,1.61,0,0,0,2-1.08Z"/><path class="cls-2" d="M44.05,25a1.6,1.6,0,0,0,.86,3.09A1.6,1.6,0,0,0,44.05,25Z"/><path class="cls-2" d="M20.65,25a1.6,1.6,0,0,0,.86,3.09A1.6,1.6,0,1,0,20.65,25Z"/><path class="cls-2" d="M32.32,18.24a1.59,1.59,0,1,0,1,3c1.87-.58,1.13-3.74-1-3Z"/><path class="cls-2" d="M46,40.46a1.61,1.61,0,0,0-1.06-2,1.6,1.6,0,1,0,1.06,2Z"/><path class="cls-2" d="M47.94,33.39a1.31,1.31,0,0,0,2.5-.77,1.31,1.31,0,0,0-2.5.77Z"/><path class="cls-2" d="M40.3,17.76a1.29,1.29,0,1,0,1.08,2.34c1.42-.7.48-3.05-1.08-2.34Z"/><path class="cls-2" d="M15.08,33.69a1.31,1.31,0,1,0,2.59-.39,1.31,1.31,0,0,0-2.59.39Z"/><path class="cls-2" d="M24.1,17.91a1.3,1.3,0,1,0,.57,2.53,1.3,1.3,0,0,0-.57-2.53Z"/><path class="cls-2" d="M40,47.71a1.31,1.31,0,0,0,2.5-.77,1.31,1.31,0,0,0-2.5.77Z"/><path class="cls-2" d="M23.53,47.92c.35,1.51,3,1.13,2.53-.64a1.3,1.3,0,0,0-2.53.64Z"/><path class="cls-2" d="M50.64,43.48a1.05,1.05,0,0,0-1.87-1,1.05,1.05,0,1,0,1.87,1Z"/><path class="cls-2" d="M32.43,12.74a1,1,0,1,0,.73,2,1,1,0,0,0-.73-2Z"/><path class="cls-2" d="M31.81,53.16a1,1,0,0,0,2-.68,1,1,0,1,0-2,.68Z"/><path class="cls-2" d="M14.86,43.28a1.05,1.05,0,0,0,2-.46c-.23-1.23-2.38-1-2,.46Z"/><path class="cls-2" d="M49.25,22.58a1,1,0,1,0,.92,1.86,1,1,0,1,0-.92-1.86Z"/><path class="cls-2" d="M15.44,22.57a1,1,0,1,0,.92,1.86,1,1,0,0,0-.92-1.86Z"/><path class="cls-2" d="M23.32,51.78c.55-.85-.74-1.8-1.33-.93s.85,1.69,1.33.93Z"/><path class="cls-2" d="M42.67,14.49a.79.79,0,1,0,.6,1.45c.82-.26.52-1.89-.6-1.45Z"/><path class="cls-2" d="M54.2,33.39a.79.79,0,0,0-1.39-.75.79.79,0,1,0,1.39.75Z"/><path class="cls-2" d="M42.6,51.35a.79.79,0,0,0,1.5-.49.79.79,0,0,0-1.5.49Z"/><path class="cls-2" d="M11.32,33.69a.78.78,0,0,0,1.51-.38.78.78,0,1,0-1.51.38Z"/><path class="cls-2" d="M22,14.71a.77.77,0,1,0,.5,1.45c.87-.31.45-1.79-.5-1.45Z"/></g></g></svg>