<svg xmlns="http://www.w3.org/2000/svg" viewBox="0 0 65.75 65.75"><defs><style>.cls-1{fill:#3c2415;}.cls-2{fill:#fff;fill-rule:evenodd;}</style></defs><title>eos_1</title><g id="Layer_2" data-name="Layer 2"><g id="Layer_1-2" data-name="Layer 1"><circle class="cls-1" cx="32.88" cy="32.88" r="32.88"/><path class="cls-2" d="M32.24,52.86c-.6-.61-1.93-5.69-2-6.35h3.85Zm1.37.4,1.95-6.66c1.09-.3,7.47-.16,9-.06-1.69,1.33-5.8,3.59-8,5a21.58,21.58,0,0,1-2.93,1.74Zm-14-6.73,9.06,0,2.15,7c-.8-.24-10.61-6.42-11.2-7ZM39,35.17c.41.38,5.21,9,5.56,9.95l-8.59,0Zm-19.2,9.9c.27-.79,4.88-9.3,5.48-9.76l2.87,9.82Zm9.85.05C29.21,43.24,26,34,26.45,32.91s4.65-8.06,5.59-10.1c.5.37.5.5.87,1.18l5,8.93c.34.92-3.18,11.79-3.43,12.19Zm11.06-9.9c-1-1.7-1.29-1.66-.63-3.77a16.92,16.92,0,0,1,1.28-3.9l3.14,14.35ZM23,27.79a21.86,21.86,0,0,1,1.31,4c.62,2,.18,1.92-.72,3.53-1.19,2.14-2.68,4.53-3.8,6.64Zm15.38,3.09-.09-.12-3.84-6.9c-.94-1.69-1.57-2-1.55-4.21,0-1.86-.05-3.75,0-5.6l5.73,7.78c.49.69.91,1.23,1.42,2,.8,1.15.54,1.21.17,2.43a30.36,30.36,0,0,1-1.59,5Zm-12.59.54c-.14-.19,0,0-.25-.4l-.07-.14-.24-.75c-.14-.49-.26-.88-.41-1.37-1.1-3.48-1.32-3.35-.17-5l4.13-6.21c.89-1.36,1.74-2.74,2.66-3.95a50.47,50.47,0,0,1,.08,5.91c0,2.28-.67,2.75-1.56,4.4-1.26,2.34-3.15,5.25-4.16,7.56Zm5.57,24.19h1.19l11.43-7c3.13-1.8,3.15-1.75,2.29-5.8-.53-2.5-1.1-4.93-1.66-7.45s-1.11-5.09-1.71-7.63c-.83-3.54-1-3.76-2.81-6.33l-7.75-10.5h-.75c-2.42,3.44-5,7.28-7.33,10.84-1.59,2.42-2,2.75-2.76,6.18L18.17,42.72C17,48,16.88,46.42,25.7,52.07Z"/></g></g></svg>