<svg xmlns="http://www.w3.org/2000/svg" viewBox="0 0 65.75 65.75"><defs><style>.cls-1{fill:#719fbe;}.cls-2{fill:#e1f1e4;}.cls-2,.cls-3,.cls-4,.cls-5,.cls-6{fill-rule:evenodd;}.cls-3{fill:#fff;}.cls-4{fill:#9dbbc3;}.cls-5{fill:#b7ced2;}.cls-6{fill:#e6e7e8;}</style></defs><title>ethereum_1</title><g id="Layer_2" data-name="Layer 2"><g id="Layer_1-2" data-name="Layer 1"><circle class="cls-1" cx="32.88" cy="32.88" r="32.88"/><path class="cls-2" d="M19.71,33.91c.57.84,9.32,7,11.47,8.69.57.44,1.22,1.3,1.61.6-.36-.89-.31-14.94,0-16.67C34.24,27.78,37,29,38.94,30.19c1.33.86,5.52,3.51,6.28,3.41A18.3,18.3,0,0,0,43.68,30c-2.58-5.3-5.43-12.05-7.87-16.93l-3.21-7h0l0,.35-.06,20.2c-1.26.27-5,2.79-6.48,3.62a68.87,68.87,0,0,1-6.39,3.65Z"/><path class="cls-3" d="M19.71,33.91a68.87,68.87,0,0,0,6.39-3.65c1.51-.82,5.22-3.34,6.48-3.62l.06-20.2c-.7.55-5.71,11.78-6.54,13.61Z"/><path class="cls-4" d="M32.78,43.21c.67-.09.85-.35,1.68-1,.61-.46,1-.73,1.58-1.15l6.25-4.66a25.56,25.56,0,0,1,3.2-2.21l-.28-.6c-.75.09-4.94-2.56-6.28-3.41C37,29,34.24,27.78,32.81,26.54c-.33,1.73-.38,15.78,0,16.67Z"/><path class="cls-5" d="M32.72,47.48c-.54,1.77-.12,10.28-.15,13.11v.27h0L45.3,37.75c-.9.44-11.09,8.67-12.58,9.73Z"/><path class="cls-6" d="M32.57,60.59c0-2.83-.4-11.34.15-13.11-1.33-.35-11.44-9.19-13-9.9a59,59,0,0,0,3.08,5.7Z"/></g></g></svg>