<svg xmlns="http://www.w3.org/2000/svg" viewBox="0 0 223.19 223.14"><defs><style>.cls-1{fill:#10736c;}.cls-1,.cls-2{fill-rule:evenodd;}.cls-2{fill:#fff;}</style></defs><title>Asset 92</title><g id="Layer_2" data-name="Layer 2"><g id="Layer_1-2" data-name="Layer 1"><path class="cls-1" d="M65.79,167.86c8.93-3.17,24.43,20.61,62.93,15.22,2.83-.4,9.55-2.13,11.48-2.15,5.5-.09,6.89,4.54,2.66,7.06-3,1.81-18,3.4-22.2,3.71-13.18,1-31.12-4.28-42.69-10.52-7.43-4-14-7.31-12.19-13.32Zm50.91,10.57c-2-8.08,5.64-4,22.08-7.74,11.31-2.58,19.9-8.76,22.22-6.46,7.09,7.06-34.41,17.06-44.31,14.2ZM22.2,109.16A101.68,101.68,0,0,1,27,81.09a102.44,102.44,0,0,1,4.62-11.31c2.3-4.93,2.1-7.82,8.28-7.37,3.6,5.16-2.44,12.36-5,19.62-10.71,30.59-1.22,67.32,20.64,88.55a85.79,85.79,0,0,0,40.9,22c6.35,1.47,14.2.28,13,6.89C104.57,210,22.2,185.32,22.2,109.16Zm92-66.13c11.93-1.87,26.05,3.37,35.26,8.62,12.27,7,5.87,10.74,2.81,10.4-.43-.06-11.68-6.35-14.68-7.54-28.54-11.23-53.35,2.38-66,17.21S59.73,101.1,57.74,104s-5.53,2.27-6.63-1.08c-1.76-5.44,4.73-20.52,7.17-25.48,4.42-9,13.44-18.4,21.49-23.58C94.9,44.16,100,45.26,114.24,43ZM34.07,110.15c0-29.37,14.85-52.27,34-66.9,10.2-7.77,33.28-16.87,45-15.45,7.77.94,7.34,9.52,2.18,11.45-2.61,1-12.93,1.64-17.4,2.86C51.73,54.5,31.66,109.33,57.15,148c7.6,11.51-3.06,17.86-10.6,5.53A69.5,69.5,0,0,1,40.22,141c-3.71-10-6.15-18.79-6.15-30.84ZM0,106.15c0,21.86,1.28,34.1,10.32,53.66A108.84,108.84,0,0,0,20,176.14a73.75,73.75,0,0,0,5.73,7.26c25.46,28.49,50.17,39.74,91.28,39.74,15.31,0,31.8-5.3,42.66-10.32,9.81-4.54,23.39-14.2,31.1-21.91s17.4-21.37,21.91-31.1C239,102.95,214,35.57,159.68,10.48a116,116,0,0,0-96.35,0A106.91,106.91,0,0,0,39.74,25.87C30.1,34.49,35,29.27,26.22,39.37,11.06,56.74,0,81.94,0,106.15Z"/><path class="cls-2" d="M34.07,110.15c0,12,2.44,20.83,6.15,30.84a69.5,69.5,0,0,0,6.32,12.56c7.54,12.33,18.2,6,10.6-5.53C31.66,109.33,51.73,54.5,97.85,42.12c4.48-1.22,14.8-1.87,17.4-2.86,5.16-1.93,5.58-10.52-2.18-11.45-11.71-1.42-34.78,7.68-45,15.45-19.16,14.63-34,37.53-34,66.9Z"/><path class="cls-2" d="M22.2,109.16c0,76.17,82.37,100.86,87.22,90.28,1.25-6.6-6.6-5.41-13-6.89a85.79,85.79,0,0,1-40.9-22C33.7,149.35,24.21,112.61,34.92,82c2.52-7.26,8.56-14.46,5-19.62-6.18-.45-6,2.44-8.28,7.37A102.44,102.44,0,0,0,27,81.09a101.68,101.68,0,0,0-4.79,28.06Z"/><path class="cls-2" d="M114.24,43C100,45.26,94.9,44.16,79.77,53.88,71.72,59.07,62.7,68.42,58.28,77.46c-2.44,5-8.93,20-7.17,25.48,1.11,3.34,4.65,4,6.63,1.08s1.13-17.46,13.83-32.31,37.5-28.43,66-17.21c3,1.19,14.26,7.48,14.68,7.54,3.06.34,9.47-3.4-2.81-10.4-9.21-5.24-23.33-10.49-35.26-8.62Z"/><path class="cls-2" d="M140.2,180.93c-1.93,0-8.65,1.76-11.48,2.15-38.49,5.39-54-18.4-62.93-15.22-1.84,6,4.76,9.35,12.19,13.32,11.57,6.24,29.51,11.54,42.69,10.52,4.17-.31,19.16-1.9,22.2-3.71,4.22-2.52,2.83-7.14-2.66-7.06Z"/><path class="cls-2" d="M116.7,178.43c9.89,2.86,51.39-7.14,44.31-14.2-2.32-2.3-10.91,3.88-22.22,6.46-16.44,3.71-24.09-.34-22.08,7.74Z"/></g></g></svg>