<svg xmlns="http://www.w3.org/2000/svg" viewBox="0 0 148.42 148.42"><defs><style>.cls-1{fill:#b5b5b6;fill-rule:evenodd;}</style></defs><title>litecoin</title><g id="Layer_2" data-name="Layer 2"><g id="Layer_1-2" data-name="Layer 1"><path class="cls-1" d="M74.21,0A74.21,74.21,0,1,1,0,74.21,74.21,74.21,0,0,1,74.21,0Zm36.2,97.48-1.67,11.91c-.57,4.05-3.37,5-7.06,4.65L46,113.84l4.9-24L41.22,95.7l1.84-10.63c4-4.93,11.62-9.21,12.19-14.6l9.3-43.88,18.82.09L76.51,59.9l24.6-16.3-2.18,11.2a6.07,6.07,0,0,1-2.86,3.86L75.4,72.57,73,75.86,68.74,97.43Z"/></g></g></svg>