<svg xmlns="http://www.w3.org/2000/svg" viewBox="0 0 65.75 65.75"><defs><style>.cls-1{fill:#27aae1;}.cls-2{fill:#fff;}.cls-2,.cls-3{fill-rule:evenodd;}.cls-3{fill:#139fda;}</style></defs><title>ripple_1</title><g id="Layer_2" data-name="Layer 2"><g id="Layer_1-2" data-name="Layer 1"><circle class="cls-1" cx="32.88" cy="32.88" r="32.88"/><path class="cls-2" d="M38.19,12.6a8.6,8.6,0,0,0-7.08,6.95c-.89,4.7,3.76,7.63.87,11a4.31,4.31,0,0,1-4.93,1.24c-1.81-.76-2.23-2.23-3.52-3.58-2.81-3-6.44-3.89-10.23-2-7,3.56-5.87,14.73,2.86,16A8.16,8.16,0,0,0,21.83,41c2.92-1.9,4-7,8.41-5.16a4.3,4.3,0,0,1,2.6,4.57c-.23,1.76-4.67,7.43,1,12.64a8.91,8.91,0,0,0,8.2,1.71c7.69-2.52,8.08-13.86-.18-16.18-2.17-.61-3.66-.09-5.55-1.33S33,30.05,39.59,29.44c7.51-.69,9.9-7.28,7.63-12a8.52,8.52,0,0,0-9-4.88Z"/><path class="cls-3" d="M38.19,12.6a8.52,8.52,0,0,1,9,4.88c2.26,4.68-.12,11.27-7.63,12-6.61.61-5.28,6.52-3.26,7.83s3.38.72,5.55,1.33c8.26,2.33,7.88,13.66.18,16.18a8.91,8.91,0,0,1-8.2-1.71c-5.69-5.2-1.25-10.88-1-12.64a4.3,4.3,0,0,0-2.6-4.57C25.85,34,24.75,39.12,21.83,41a8.16,8.16,0,0,1-5.66,1.24c-8.73-1.29-9.84-12.45-2.86-16,3.79-1.93,7.42-1,10.23,2,1.29,1.35,1.71,2.81,3.52,3.58A4.31,4.31,0,0,0,32,30.54c2.89-3.37-1.76-6.3-.87-11a8.6,8.6,0,0,1,7.08-6.95Zm-.09,44h3.06c1.22-.64,2.72-.87,3.89-1.68a9.93,9.93,0,0,0,3.7-11.87c-3.44-9.18-13.16-3.73-12.65-9.47.31-3.55,4.71-2.34,7.5-3.58a9.94,9.94,0,0,0,4-14.75c-2.83-3.76-5.19-3.44-6.9-4.19H38c-1.44.67-3.86.87-5.81,3.11-5.34,6-1,11.66-.78,13.16a2.83,2.83,0,0,1-4.56,2.75c-1.58-1.35-4.05-7.42-11.63-5.94-10.51,2.07-10.62,17.5.35,19.46,7.33,1.32,9.58-4.34,11.18-5.92,1.91-1.88,5.06.06,4.67,2.65-.24,1.59-2,3.27-1.84,7a9.92,9.92,0,0,0,2.74,6.24c1.94,2.13,4.27,2.34,5.74,3.06Z"/></g></g></svg>