<svg xmlns="http://www.w3.org/2000/svg" viewBox="0 0 65.75 65.75"><defs><style>.cls-1{fill:#00a79d;}.cls-2{fill:#fff;fill-rule:evenodd;}</style></defs><title>stellar_1</title><g id="Layer_2" data-name="Layer 2"><g id="Layer_1-2" data-name="Layer 1"><circle class="cls-1" cx="32.88" cy="32.88" r="32.88"/><path class="cls-2" d="M29.76,43.89c-1,.75-1.4,1.65-2.62,2.4C21.7,49.63,21,42.7,24.23,39.7c1.18.92,4.8,3.19,5.53,4.19Zm7.08-23.48a4.59,4.59,0,0,1,5.31,3.5c1.26,6.15-7.94,7.76-9,1.93a4.5,4.5,0,0,1,3.73-5.43ZM47,13.06H44.44c-3.31,1.07-4.61-.6-11.75,4.67A16.45,16.45,0,0,0,29,22.3c-.83,1.39-2.34,3.76-3,5.23-5.17.1-10.37,2.4-12.61,6.86,2.93-.21,5.45-1.08,8.2.53-.64,2.32,0,2.61,1.18,3.64-5.61,7.31-3.78,15.52,4,10.09,1.82-1.26.91-.88,2.13-1.89a6.37,6.37,0,0,0,1.69-2.34c2,.62,2.57,1.4,4.09-.34L37,47.13a12.66,12.66,0,0,1,1.16,4.48c1.25-.76,2.6-4.26,3-6a11.17,11.17,0,0,0-.9-7.76c1.38-2.31,5.23-5.42,7.12-10.09,2.09-5.15.83-9.62-.42-14.67Z"/></g></g></svg>